<?xml version="1.0" standalone="no"?>
<!DOCTYPE svg PUBLIC "-//W3C//DTD SVG 20010904//EN"
 "http://www.w3.org/TR/2001/REC-SVG-20010904/DTD/svg10.dtd">
<svg version="1.0" xmlns="http://www.w3.org/2000/svg"
 width="118.000000pt" height="118.000000pt" viewBox="0 0 118.000000 118.000000"
 preserveAspectRatio="xMidYMid meet">
<metadata>
Created by potrace 1.14, written by Peter Selinger 2001-2017
</metadata>
<g transform="translate(0.000000,118.000000) scale(0.100000,-0.100000)"
fill="#000000" stroke="none">
<path d="M796 1094 c-11 -8 -17 -14 -14 -14 3 0 0 -17 -7 -37 l-13 -36 -153
-3 c-85 -1 -166 -5 -182 -7 -23 -5 -30 -1 -43 26 -9 18 -24 40 -34 49 -15 14
-21 15 -36 4 -15 -11 -18 -29 -18 -110 -1 -53 -4 -96 -8 -96 -4 0 -10 -9 -13
-20 -3 -11 -12 -20 -18 -20 -7 0 -19 -8 -27 -18 -51 -61 -79 -100 -73 -106 3
-3 1 -6 -5 -6 -7 0 -11 -3 -10 -7 1 -5 -3 -18 -10 -30 -7 -13 -10 -23 -6 -23
3 0 2 -6 -4 -12 -15 -20 7 -33 52 -31 34 1 46 -5 95 -50 31 -29 58 -55 61 -58
3 -3 21 -14 40 -25 19 -10 38 -23 41 -27 3 -5 12 -10 20 -12 35 -8 59 -18 59
-24 0 -4 6 -8 13 -9 24 -2 47 -8 53 -15 4 -3 16 -1 28 5 11 7 23 13 26 13 18
4 60 30 60 37 0 4 7 8 15 8 8 0 15 5 15 10 0 6 5 10 11 10 6 0 16 6 24 12 7 7
37 33 66 58 75 64 121 114 113 123 -3 2 15 8 38 12 24 5 46 9 51 10 4 1 12 3
17 4 14 1 8 21 -12 45 -10 11 -18 24 -18 29 0 11 -52 63 -99 99 -33 25 -39 41
-43 108 -1 21 -26 141 -30 145 -2 2 -12 -3 -22 -11z m-86 -414 c0 -4 7 -7 15
-7 8 0 15 3 15 6 0 10 104 7 116 -4 9 -7 8 -17 -2 -37 -8 -16 -18 -28 -23 -28
-4 0 -45 -36 -90 -80 -46 -44 -88 -80 -93 -80 -6 0 -8 -7 -5 -14 4 -9 1 -13
-7 -10 -6 2 -25 -6 -41 -20 l-29 -25 -24 25 c-14 13 -29 24 -34 24 -5 0 -14 5
-21 10 -7 6 -34 25 -62 42 -27 18 -53 37 -57 43 -4 5 -8 7 -8 3 0 -5 -17 9
-39 30 -24 23 -38 46 -37 60 0 12 3 22 6 21 3 0 17 4 32 10 25 9 201 24 301
25 26 0 47 3 47 6 0 3 9 6 20 6 11 0 20 -3 20 -6z"/>
<path d="M570 651 c-21 -9 -22 -25 -1 -38 14 -9 23 -8 41 4 32 22 0 50 -40 34z"/>
<path d="M558 564 c-21 -11 -32 -12 -52 -2 -36 16 -42 5 -19 -38 25 -48 61
-76 90 -68 24 7 37 30 26 47 -4 7 -6 20 -5 29 2 10 0 24 -5 32 -7 12 -12 12
-35 0z"/>
<path d="M625 560 c-16 -7 -17 -9 -3 -9 9 -1 20 4 23 9 7 11 7 11 -20 0z"/>
<path d="M1004 583 c-27 -14 -54 -33 -61 -42 -7 -9 -13 -13 -13 -8 0 13 -60
-46 -74 -75 -8 -15 -11 -28 -8 -28 9 0 7 -134 -2 -149 -4 -6 -3 -11 2 -11 6 0
8 -15 5 -34 -2 -19 0 -36 5 -39 12 -8 107 77 143 129 33 48 64 138 55 161 -3
8 -2 11 4 8 8 -5 7 102 -2 111 -2 2 -26 -8 -54 -23z"/>
<path d="M110 499 c0 -60 56 -171 120 -240 41 -44 146 -103 126 -71 -3 5 -8
24 -11 43 -3 19 -8 42 -11 51 -6 20 -13 53 -21 93 -15 82 -24 104 -39 98 -8
-3 -14 -1 -14 5 0 6 -8 9 -17 7 -10 -1 -29 3 -43 10 -14 7 -40 15 -57 18 -28
6 -33 4 -33 -14z"/>
</g>
</svg>
